<svg version="1.1" id="Layer_1" xmlns="http://www.w3.org/2000/svg" xmlns:xlink="http://www.w3.org/1999/xlink" x="0px" y="0px"
	 width="109" height="57" viewBox="0 0 816 416" enable-background="new 0 0 816 416" xml:space="preserve">
<path fill="#FF0000" opacity="1.000000" stroke="none" 
	d="
M494.692810,235.389160 
	C494.617706,234.234085 494.563171,233.422958 494.479370,232.177338 
	C490.650269,234.622650 488.067413,237.846664 485.150787,240.695007 
	C474.181549,251.407288 462.247345,248.765854 456.751801,234.375244 
	C455.748505,231.748016 454.999542,229.023651 453.999695,225.931381 
	C449.543488,227.787369 447.066437,231.599426 444.319550,234.933044 
	C440.616272,239.427383 437.324219,244.259628 433.831787,248.928986 
	C431.211121,252.432755 429.470428,252.323166 427.260773,248.502106 
	C425.443115,245.358902 424.604736,242.112762 425.960083,238.488907 
	C426.759277,236.352020 427.195435,234.079361 428.183563,230.433533 
	C417.637604,237.501694 407.998718,243.488388 399.651306,251.284576 
	C397.533417,253.262634 398.384186,255.884232 398.768799,258.361237 
	C399.909729,265.708984 402.029236,273.057404 398.520172,280.387054 
	C395.058838,287.617004 387.000031,291.947296 381.208984,289.551697 
	C375.007050,286.986115 370.420197,275.649170 373.086823,268.920898 
	C375.906281,261.806946 380.738403,256.035339 386.337982,250.978760 
	C389.401337,248.212479 390.918823,245.272812 390.740906,241.036911 
	C390.499847,235.297760 390.433990,229.526443 391.971893,222.991089 
	C385.069275,224.880768 379.383392,226.404953 373.719543,228.007004 
	C371.947845,228.508133 371.333862,230.217239 370.416321,231.590210 
	C368.297028,234.761566 366.628723,238.280151 363.431122,240.623657 
	C358.161163,244.485962 352.587921,243.046738 349.956024,237.080765 
	C348.642548,234.103378 348.012939,230.830200 348.987915,227.799011 
	C350.805206,222.149155 352.819427,216.504776 355.416290,211.182388 
	C357.382751,207.152115 361.497498,206.230728 365.766144,206.880081 
	C371.195129,207.705948 375.233185,211.204147 376.120605,215.703735 
	C376.402191,217.131378 376.485291,218.598160 376.748596,220.791840 
	C384.140472,218.277298 392.314972,218.891678 396.920349,211.237030 
	C398.921722,207.910507 401.689484,207.780533 404.473633,210.145370 
	C407.698212,212.884293 405.686829,214.452011 403.342255,216.787491 
	C399.031647,221.081375 398.365936,227.167862 397.462433,232.898438 
	C397.029205,235.646088 397.387787,238.518555 397.387787,241.200195 
	C399.208527,242.353104 400.118561,240.966873 401.097687,240.287766 
	C409.438232,234.502808 417.719391,228.632309 426.051178,222.834579 
	C430.372498,219.827530 432.575867,215.793488 433.813995,210.601578 
	C440.827271,181.191849 447.438538,151.642349 459.386749,123.681961 
	C462.201050,117.096169 466.165680,113.922501 470.012177,114.896477 
	C475.404633,116.261894 478.822296,122.417351 477.838867,129.341736 
	C476.596100,138.092163 474.285187,146.592194 471.363220,154.921310 
	C464.019775,175.854080 454.937347,195.978012 443.298126,214.902725 
	C441.412476,217.968719 440.456818,220.644394 439.840973,224.968170 
	C443.439453,222.367706 446.003510,218.970642 449.743561,217.059937 
	C456.101044,213.812088 460.335724,215.856720 461.448242,222.923309 
	C462.041351,226.690857 462.190643,230.552582 463.072357,234.244705 
	C464.408386,239.839493 468.431458,241.580399 473.235748,238.500473 
	C481.372467,233.284210 489.072601,227.428192 496.477386,221.208267 
	C499.150574,218.962830 499.124756,215.130005 501.240479,212.534882 
	C502.673767,210.776825 503.955048,208.217300 506.782593,209.370956 
	C509.448456,210.458603 511.375305,212.314423 509.171295,215.556946 
	C505.354095,221.172668 503.526642,227.561218 502.053650,234.083847 
	C501.125580,238.193604 502.077576,239.326904 506.193390,238.516083 
	C512.357483,237.301758 517.557739,234.045120 522.629395,230.495895 
	C527.811951,226.869049 533.070801,223.343048 538.411865,219.955002 
	C540.513794,218.621643 542.145508,217.109390 542.473511,214.612747 
	C544.231750,201.230011 547.762268,188.243057 551.166199,175.225891 
	C551.326660,174.612427 551.344971,173.961761 551.417664,173.416397 
	C549.726807,171.601303 547.874084,172.414536 546.133911,172.616287 
	C544.982605,172.749756 543.839417,173.273254 542.710938,173.221619 
	C539.786194,173.087784 535.680908,174.708771 535.150818,169.927658 
	C534.643372,165.351395 538.081848,164.599121 541.749207,164.534714 
	C542.562012,164.520447 543.411560,163.905289 544.172180,164.024734 
	C554.070251,165.579285 556.313232,159.146194 558.216064,151.435150 
	C560.524109,142.081787 563.676086,132.935638 566.497864,123.710541 
	C567.674866,119.862709 569.317261,116.216080 571.790222,113.014946 
	C573.105103,111.312912 574.458008,109.348061 577.040771,109.919449 
	C579.569092,110.478783 580.934814,112.376221 581.557983,114.778221 
	C582.746582,119.359131 582.566406,124.045151 581.473633,128.526489 
	C578.767395,139.624161 575.692139,150.631836 572.716187,161.860458 
	C577.092102,163.951508 578.754211,161.812302 579.878113,158.033295 
	C583.287720,146.567902 586.477417,135.018707 591.594971,124.140366 
	C592.019897,123.237114 592.304016,122.259888 592.792358,121.395500 
	C594.928589,117.614639 597.558533,114.258873 602.476379,114.924850 
	C606.785828,115.508438 610.025818,120.006706 610.280457,125.302933 
	C610.721558,134.478043 607.634766,142.986465 605.082520,151.583328 
	C603.962097,155.357254 601.881409,158.856781 601.619812,162.959274 
	C605.659851,164.908112 610.343811,164.408569 614.304932,167.428528 
	C610.437744,169.907288 606.251587,169.696106 602.338745,170.086426 
	C599.502869,170.369293 597.839600,171.269012 596.663208,173.925156 
	C590.199646,188.519379 583.416565,202.958847 574.987671,216.560425 
	C573.504028,218.954529 572.831604,221.641495 572.264465,225.212234 
	C576.096313,221.741653 579.070435,218.591248 583.059692,216.752838 
	C589.111755,213.963776 593.617920,216.533585 594.280457,223.207489 
	C594.608459,226.511261 594.834717,229.831512 595.327393,233.111191 
	C596.319153,239.712265 600.850037,241.857529 606.412781,238.039658 
	C613.136902,233.424698 619.565247,228.378464 626.115723,223.511047 
	C630.467834,220.277191 634.506897,216.580032 639.484497,214.069550 
	C640.818298,216.660995 639.106873,217.963196 637.798706,218.984406 
	C630.775696,224.466919 626.603271,232.523026 620.051392,238.412521 
	C619.311096,239.077881 618.716309,239.902130 618.006714,240.604935 
	C607.042358,251.464874 594.628784,248.728577 589.126221,234.310928 
	C588.077393,231.562836 588.053040,228.428940 585.955994,225.725906 
	C582.116882,228.077423 579.480591,231.443100 576.888306,234.851562 
	C573.258240,239.624451 569.513123,244.316345 566.052551,249.209290 
	C563.653076,252.601974 561.864197,251.793365 560.106140,248.836060 
	C558.080933,245.429352 557.396240,242.040497 558.581360,237.921967 
	C565.027954,215.518860 570.654602,192.896698 576.203064,169.928177 
	C572.510193,169.142609 570.102112,169.823685 568.929565,173.740906 
	C563.816467,190.822281 556.824036,207.129150 549.799744,223.523132 
	C544.110779,236.800583 543.362244,251.661041 550.421570,265.576721 
	C550.630493,265.988647 550.642883,266.500244 550.815430,267.271820 
	C546.136353,267.647980 544.202454,264.426361 542.661133,261.224884 
	C540.779419,257.316284 539.684082,253.050156 539.735718,248.678741 
	C539.810059,242.378067 539.093872,236.035675 540.537964,229.779984 
	C540.743103,228.891602 540.913574,227.762543 539.582947,226.878387 
	C533.493896,230.637497 527.605957,234.893066 522.142273,239.696045 
	C517.922119,243.405960 513.023315,245.161758 507.547424,245.247452 
	C500.618744,245.355927 496.979980,242.530701 494.692810,235.389160 
M447.190857,192.171600 
	C453.551117,180.833694 457.321838,168.287308 463.441071,156.872879 
	C468.430481,147.565948 469.406586,137.335632 471.645020,127.379570 
	C472.084656,125.424110 472.293640,123.178497 471.222382,121.059746 
	C464.075500,127.065666 447.530823,175.672241 446.215027,194.106247 
	C446.482574,193.580414 446.707397,193.138519 447.190857,192.171600 
M589.435364,151.918427 
	C588.651917,155.373154 586.379883,158.537857 587.183289,162.386841 
	C591.019226,163.713120 592.945435,162.273453 594.916565,159.013214 
	C600.235046,150.216232 601.224365,140.198029 603.711121,130.604095 
	C604.517639,127.492874 605.496643,124.251404 603.524048,119.990509 
	C596.493958,129.901581 593.274841,140.638504 589.435364,151.918427 
M383.133636,281.462555 
	C392.427673,279.826294 396.131927,269.081665 392.656189,257.571259 
	C386.071625,262.987579 381.239746,269.223236 379.556335,277.570068 
	C379.100403,279.830780 379.548920,281.605621 383.133636,281.462555 
M563.439575,157.632339 
	C563.552246,159.121475 562.150635,160.637054 564.098022,163.477203 
	C569.052795,149.152023 573.472290,135.871262 575.280151,121.814171 
	C569.827026,132.987366 567.818909,145.307907 563.439575,157.632339 
M589.095703,170.964737 
	C585.912720,168.127716 584.404724,170.019958 583.570984,173.064575 
	C581.747559,179.723038 580.059753,186.418655 578.316589,193.099121 
	C582.920227,186.359299 586.524658,179.215363 589.095703,170.964737 
M368.206909,219.531250 
	C368.681396,217.027679 369.816193,214.462280 367.605347,211.954865 
	C362.857269,213.718231 360.680969,216.836945 361.050873,221.891815 
	C363.858582,222.778717 366.405029,223.752914 368.206909,219.531250 
M354.315552,234.058273 
	C354.458527,236.416306 355.602448,236.992477 357.561005,235.760178 
	C360.119965,234.150070 362.157013,232.084579 363.003510,228.955261 
	C361.205109,227.352234 359.255737,226.313782 356.908661,225.913666 
	C355.231628,228.183746 354.372681,230.608398 354.315552,234.058273 
M558.074524,182.614777 
	C559.058044,179.106995 561.412415,175.938889 560.975769,170.763962 
	C557.149170,176.757523 557.612976,182.645004 556.250122,188.022049 
	C556.768005,186.449921 557.285889,184.877792 558.074524,182.614777 
z"/>
<path fill="#FF0000" opacity="1.000000" stroke="none" 
	d="
M310.504913,200.514038 
	C324.797546,184.290817 336.987732,166.729340 352.244690,151.795029 
	C353.431763,150.633041 354.637817,149.488937 355.867798,148.372604 
	C357.748749,146.665436 359.544678,144.921494 362.380707,146.896698 
	C365.319763,148.943619 365.977081,151.606750 364.812256,154.751343 
	C362.661133,160.558472 359.217285,165.701630 356.121338,171.013489 
	C343.204254,193.175674 331.328827,215.897812 321.614258,239.626999 
	C314.466156,257.087128 308.198181,274.935516 304.480591,293.538116 
	C303.566345,298.113068 302.607758,302.665619 304.026794,307.345795 
	C304.450500,308.743225 304.580658,310.311340 303.267975,311.818268 
	C300.201141,311.516541 298.469635,309.815918 297.631927,306.710175 
	C295.408417,298.466583 297.340576,290.554047 299.228943,282.605927 
	C302.254456,269.871643 306.346802,257.447113 311.196320,245.335464 
	C316.118713,233.041733 321.017212,220.574234 327.647247,209.184708 
	C332.263153,201.255188 335.282349,192.770813 339.509430,184.891464 
	C342.995148,178.394073 346.406586,171.618530 350.752808,165.512619 
	C351.224091,164.850540 351.832855,164.229156 351.494995,163.038071 
	C342.260101,172.076691 334.384979,182.089203 326.715912,192.274399 
	C323.314087,196.792297 320.207581,201.552567 316.564789,205.862885 
	C313.541229,209.440521 309.751740,212.946808 304.654694,211.738449 
	C298.985352,210.394440 296.750702,205.487564 295.714752,200.166016 
	C292.872070,185.563599 296.033539,171.398972 299.074738,157.253403 
	C299.795654,153.900299 300.110748,150.390869 301.732178,147.295151 
	C307.753174,148.640564 308.926605,150.545227 307.475861,156.142120 
	C303.849915,170.131058 299.886841,184.070602 301.253113,198.794983 
	C301.452179,200.940475 301.233154,203.153168 302.964264,205.191544 
	C306.121246,205.082535 308.045135,202.659470 310.504913,200.514038 
z"/>
<path fill="#FFFFFF" opacity="1.000000" stroke="none" 
	d="
M239.079453,208.938995 
	C236.521957,206.847900 234.907974,204.185562 231.927139,202.760849 
	C229.182938,205.899826 229.273727,209.906967 228.514023,213.504837 
	C227.870743,216.551361 226.794235,218.257004 223.509399,218.571518 
	C220.485580,218.861053 218.043427,220.149567 218.258270,223.901840 
	C218.332901,225.205048 217.576935,226.089767 216.342010,226.515854 
	C211.529251,228.176331 206.713730,229.828781 201.110840,230.765976 
	C205.867722,223.705353 210.624603,216.644714 215.673386,209.150848 
	C208.893219,204.218719 201.825470,200.341370 194.321915,197.222229 
	C192.220749,196.348801 190.965500,197.524460 189.749359,199.151627 
	C185.857040,204.359390 182.421722,209.816895 179.905350,215.831207 
	C179.099091,217.758194 177.989563,219.540146 175.558090,219.247650 
	C171.116760,218.713425 169.910004,221.761139 169.672546,224.998123 
	C169.282410,230.316269 166.375000,231.464661 161.682404,231.403320 
	C156.402374,231.334274 151.114059,231.899750 145.384995,231.513519 
	C149.833588,227.259613 150.966080,219.622498 159.104736,219.475235 
	C161.045044,219.440140 161.840927,217.713562 162.820831,216.426559 
	C166.958359,210.992340 171.129623,205.578613 175.080307,200.009674 
	C176.796432,197.590591 178.645844,196.476288 181.310364,198.083038 
	C184.490463,200.000717 186.219208,198.508224 187.587753,195.775253 
	C189.385880,192.184433 191.674316,190.609879 195.350067,193.661652 
	C196.046249,194.239639 197.523865,194.832458 198.063812,194.494995 
	C203.597244,191.036880 206.633423,195.674561 210.176529,198.197052 
	C218.097595,203.836395 218.038956,203.918762 226.269730,198.610458 
	C234.163345,193.519608 234.143738,193.532806 239.347916,201.263489 
	C241.566879,204.559708 243.886978,207.787827 246.018723,210.842834 
	C248.653763,210.844788 248.739380,207.972031 251.693741,207.715317 
	C257.044312,215.111908 262.696320,222.925232 268.348328,230.738556 
	C268.009460,231.082443 267.670593,231.426331 267.331757,231.770218 
	C257.998383,224.242111 248.664978,216.714005 239.079453,208.938995 
z"/>
<path fill="#ffffff" opacity="1.000000" stroke="none" 
	d="
M516.849854,183.909760 
	C519.312744,187.085892 518.568970,189.786850 515.964355,191.918747 
	C513.913391,193.597473 511.829193,192.656006 510.258392,190.927322 
	C508.442810,188.929260 509.631012,187.345245 511.240051,185.860397 
	C512.751770,184.465408 514.298218,183.294662 516.849854,183.909760 
z"/>
</svg>